<svg width="13" height="13" viewBox="0 0 13 13" fill="none" xmlns="http://www.w3.org/2000/svg">
<path d="M2.8227 12.6094H0.208505V4.19082H2.8227V12.6094ZM1.51403 3.04246C0.678205 3.04246 0 2.34985 0 1.51403C0 0.678205 0.677754 0 1.51403 0C2.3503 0 3.02805 0.677754 3.02805 1.51403C3.02805 2.34985 2.34985 3.04246 1.51403 3.04246ZM12.6067 12.6094H9.99834V8.51133C9.99834 7.53455 9.97852 6.28217 8.63923 6.28217C7.28012 6.28217 7.07161 7.34316 7.07161 8.44108V12.6094H4.46012V4.19082H6.96713V5.33917H7.00361C7.35262 4.67763 8.2051 3.97961 9.47685 3.97961C12.1226 3.97961 12.6089 5.72196 12.6089 7.98489V12.6094H12.6067Z" fill="white"/>
</svg>
